<?xml version="1.0" standalone="no"?>
<!DOCTYPE svg PUBLIC "-//W3C//DTD SVG 1.1//EN" "http://www.w3.org/Graphics/SVG/1.1/DTD/svg11.dtd" >
<svg xmlns="http://www.w3.org/2000/svg">
<metadata>Generated by IcoMoon</metadata>
<defs>
<font id="icons-sctree" horiz-adv-x="1024">
<font-face units-per-em="1024" ascent="960" descent="-64" />
<missing-glyph horiz-adv-x="1024" />
<glyph unicode="&#x20;" horiz-adv-x="512" d="" />
<glyph unicode="&#xe900;" glyph-name="apple" d="M301.995-66.133c-20.181 13.483-38.101 29.995-53.077 49.067-16.341 19.755-31.488 40.533-45.397 62.037-32.683 47.787-58.24 100.053-75.947 155.136-21.333 64.085-31.701 125.44-31.701 185.472 0 66.987 14.507 125.44 42.752 174.507 20.907 38.4 52.053 70.528 89.6 93.099 36.267 22.613 78.507 34.987 121.173 35.84 14.933 0 31.147-2.133 48.213-6.4 12.373-3.413 27.307-8.96 45.653-15.787 23.467-8.96 36.267-14.507 40.533-15.787 13.653-5.12 25.173-7.253 34.133-7.253 6.827 0 16.64 2.133 27.52 5.547 6.187 2.133 17.92 5.973 34.56 13.227 16.469 5.973 29.525 11.093 39.893 14.933 15.787 4.693 31.061 8.96 44.8 11.093 16.64 2.56 33.152 3.413 48.981 2.133 30.293-2.133 58.027-8.533 82.773-17.92 43.52-17.493 78.635-44.8 104.832-83.627-11.093-6.827-21.333-14.763-30.933-23.467-20.779-18.347-38.4-40.107-52.48-64.213-18.347-32.853-27.733-69.973-27.477-107.52 0.64-46.208 12.373-86.827 35.84-122.027 16.512-25.6 38.571-47.531 65.451-65.536 13.227-8.96 24.832-15.147 35.84-19.2-5.12-16-10.752-31.573-17.28-46.933-14.805-34.432-32.427-67.413-53.333-98.56-18.432-26.88-32.939-46.933-43.947-60.16-17.152-20.48-33.707-35.84-50.347-46.805-18.347-12.16-39.893-18.603-61.952-18.603-14.933-0.64-29.867 1.28-44.117 5.419-12.373 4.053-24.576 8.619-36.523 13.781-12.501 5.717-25.429 10.581-38.613 14.507-16.213 4.267-32.853 6.315-49.664 6.272-17.067 0-33.707-2.133-49.493-6.187-13.227-3.755-26.027-8.363-38.699-13.867-17.92-7.467-29.653-12.373-36.48-14.507-13.824-4.096-27.989-6.571-42.24-7.467-22.187 0-42.837 6.4-62.848 19.755zM594.432 721.494c-29.013-14.507-56.576-20.651-84.181-18.603-4.267 27.563 0 55.893 11.52 86.912 10.24 26.453 23.893 50.347 42.667 71.68 19.627 22.187 43.093 40.533 69.547 53.76 28.16 14.507 55.040 22.187 80.64 23.467 3.413-29.013 0-57.6-10.667-88.32-9.728-27.307-24.235-52.48-42.667-75.093-18.56-22.187-41.6-40.533-66.859-53.803z" />
<glyph unicode="&#xe901;" glyph-name="applemusic" d="M1023.872 677.376c0 31.488-2.773 62.72-10.24 93.44-13.525 55.893-45.312 98.56-93.013 129.835-24.491 15.957-51.371 25.856-80.085 31.019-22.059 3.968-44.288 5.76-66.731 6.4-1.707 0.128-3.541 0.427-5.291 0.555h-513.024c-6.485-0.427-12.928-0.725-19.413-1.109-31.872-1.835-63.573-5.248-93.568-17.109-57.003-22.613-98.133-61.952-122.24-118.613-8.192-19.115-12.459-39.467-15.488-60.075-2.389-16.725-3.755-33.493-4.267-50.347 0-1.365-0.299-2.645-0.427-3.968v-521.515c0.427-5.973 0.725-12.075 1.152-18.091 2.133-34.773 6.571-69.291 21.205-101.248 27.733-60.587 74.155-100.395 137.984-119.552 17.92-5.419 36.523-7.979 55.168-9.728 23.68-2.261 47.36-2.56 71.125-2.56h470.613c22.4 0 44.715 1.451 66.987 4.267 35.115 4.523 68.139 14.933 97.963 34.56 35.84 23.595 62.805 54.912 80.213 94.208 7.936 17.92 12.501 37.12 15.787 56.491 4.821 28.8 5.888 57.941 5.845 87.040-0.085 162.133 0 324.053-0.256 486.101zM749.824 507.136v-243.712c0-17.792-2.475-35.285-10.411-51.456-12.373-25.173-32.427-41.045-59.221-48.64-14.933-4.267-30.123-6.699-45.653-7.381-40.533-1.92-75.648 25.6-82.901 65.536-6.059 32.981 9.685 69.291 44.288 86.272 13.781 6.827 28.587 10.667 43.435 13.824 16.128 3.499 32.341 6.528 48.384 10.24 11.691 2.688 19.499 9.813 21.76 22.016 0.597 2.688 0.853 5.547 0.853 8.235 0 77.44 0 154.88-0.085 232.235 0 2.645-0.427 5.333-1.109 7.893-1.707 6.4-6.4 10.368-12.971 9.984-6.827-0.427-13.568-1.493-20.267-2.816-32.427-6.4-64.853-12.928-97.28-19.456l-157.867-31.915c-0.683-0.128-1.365-0.427-2.048-0.555-11.819-3.285-16.085-8.661-16.64-20.907-0.085-1.792 0-3.669 0-5.547-0.085-111.019 0-222.037-0.128-333.013 0-17.92-2.005-35.669-9.173-52.352-11.861-27.307-32.853-44.373-61.184-52.608-14.933-4.267-30.293-6.827-45.867-7.339-40.96-1.536-74.88 25.6-81.92 65.877-5.973 34.645 9.813 71.893 49.237 88.533 15.232 6.4 31.147 9.899 47.275 13.227 12.245 2.56 24.533 4.949 36.693 7.552 16.341 3.541 24.875 13.781 25.6 30.464v6.4c0 126.293 0 252.672 0.085 378.965 0 5.248 0.555 10.667 1.792 15.787 2.987 12.16 11.648 19.115 23.296 22.101 10.88 2.816 21.973 4.779 33.024 7.040 31.275 6.4 62.549 12.629 93.867 18.944l96.853 19.627c28.587 5.717 57.173 11.52 85.76 17.195 9.387 1.835 18.901 3.755 28.331 4.523 13.227 1.067 22.315-7.253 23.637-20.565 0.341-3.115 0.512-6.315 0.512-9.515 0.085-81.493 0.085-163.072 0.043-244.693z" />
<glyph unicode="&#xe902;" glyph-name="applepay" d="M187.221 585.216c-12.032-14.379-31.232-25.685-50.432-24.064-2.389 19.413 6.997 40.021 18.005 52.779 12.032 14.763 33.024 25.216 50.005 26.069 2.005-20.224-5.803-40.021-17.579-54.784zM204.587 557.312c-27.776 1.621-51.627-16-64.768-16-13.44 0-33.621 15.189-55.637 14.763-28.587-0.427-55.168-16.768-69.76-42.88-30.037-52.139-7.808-129.408 21.163-171.861 14.208-21.035 31.232-44.075 53.632-43.264 21.163 0.811 29.568 13.952 55.168 13.952 25.813 0 33.195-13.952 55.637-13.568 23.168 0.427 37.76 21.035 51.968 42.069 16.213 23.893 22.827 47.104 23.211 48.341-0.427 0.427-44.8 17.579-45.227 69.333-0.384 43.307 34.987 63.915 36.608 65.109-19.968 29.952-51.2 33.195-61.995 34.005zM365.227 615.936v-315.264h48.427v107.776h66.987c61.184 0 104.192 42.496 104.192 103.936 0 61.483-42.197 103.552-102.571 103.552zM413.653 574.678h55.808c41.984 0 65.963-22.613 65.963-62.464s-23.979-62.72-66.176-62.72h-55.637zM673.237 298.283c30.421 0 58.624 15.531 71.424 40.235h0.981v-37.845h44.8v156.928c0 45.483-36.011 74.837-91.392 74.837-51.413 0-89.387-29.739-90.795-70.571h43.605c3.584 19.413 21.376 32.128 45.781 32.128 29.611 0 46.208-13.952 46.208-39.637v-17.365l-60.416-3.669c-56.192-3.413-86.613-26.667-86.613-67.115 0-40.832 31.403-67.925 76.416-67.925zM686.251 335.659c-25.813 0-42.24 12.544-42.24 31.744 0 19.84 15.829 31.36 46.037 33.195l53.76 3.413v-17.792c0-29.525-24.747-50.56-57.557-50.56zM850.261 214.912c47.189 0 69.376 18.219 88.747 73.429l84.992 241.067h-49.195l-57.003-186.24h-0.981l-57.003 186.24h-50.603l81.963-229.547-4.395-13.952c-7.381-23.637-19.371-32.725-40.789-32.725-3.797 0-11.179 0.427-14.208 0.811v-37.845c2.816-0.811 14.805-1.195 18.475-1.237z" />
<glyph unicode="&#xe903;" glyph-name="blogger" d="M937.643-85.333h-851.2c-48.043 0-86.443 38.4-86.443 86.357v851.2c0 48.043 38.4 86.443 86.4 86.443h854.4c44.8 0 83.2-38.4 83.2-86.4v-851.2c0-48-38.4-86.4-86.357-86.4zM512 769.067h-128c-118.4 0-214.4-96-214.4-214.4v-256c0-118.357 96-214.357 214.4-214.357h256c118.357 0 214.357 96 214.357 214.357v169.6c0 25.6-19.2 44.8-44.8 44.8h-41.557c-22.357 0-41.643 19.2-41.643 41.643 0 118.443-96 214.443-214.357 214.357zM643.157 257.067h-259.157c-22.4 0-41.6 19.2-41.6 41.6s19.2 41.643 41.6 41.643h259.157c22.443 0 41.685-19.2 41.685-41.643s-19.2-41.643-41.685-41.6zM534.357 596.267c22.485 0 41.643-19.2 41.643-41.6s-19.2-41.6-41.6-41.6h-153.6c-22.4 0-41.643 19.2-41.643 41.6s19.2 41.6 41.6 41.6z" />
<glyph unicode="&#xe904;" glyph-name="buymeacoffee" d="M294.315 938.667l-51.883-119.424h-77.013v-107.648h29.653l30.080-191.061h-47.147l62.293-351.147 40.021 0.427 40.192-255.147h380.501l2.645 17.067 37.547 238.080 37.888-0.427 62.293 351.189h-45.056l30.080 191.019h32.256v107.605h-81.835l-51.925 119.467zM316.843 904.32h385.835l32.896-75.947h-451.755zM199.509 784.982h624.811v-39.253h-624.811zM218.837 486.4h581.76l-50.176-282.453-241.024 2.56-240.469-2.56z" />
<glyph unicode="&#xe905;" glyph-name="cashapp" d="M1006.507 790.614c-22.495 60.649-69.484 107.638-128.629 129.643l-1.504 0.49c-55.893 17.92-106.667 17.92-209.92 17.92h-309.76c-102.4 0-154.027 0-209.067-17.067-60.728-22.584-107.741-69.737-129.646-129.052l-0.487-1.508c-17.493-55.467-17.493-106.667-17.493-209.067v-310.187c0-102.827 0-153.6 17.067-209.067 22.495-60.649 69.484-107.638 128.629-129.643l1.504-0.49c55.467-17.493 106.667-17.493 209.067-17.493h310.613c102.827 0 154.027 0 209.067 17.067 60.901 22.482 108.078 69.659 130.072 129.054l0.488 1.506c17.493 55.467 17.493 106.667 17.493 209.067v309.333c0 102.827 0 154.027-17.493 209.493zM743.253 593.067l-39.68-39.68c-3.798-3.54-8.91-5.713-14.53-5.713-5.396 0-10.324 2.003-14.081 5.307l0.024-0.021c-36.822 31.253-84.876 50.281-137.372 50.347h-0.014c-41.387 0-82.773-13.653-82.773-51.627 0-38.4 44.373-51.2 95.573-70.4 89.6-29.867 163.84-67.413 163.84-155.307 0-95.573-74.24-161.28-195.413-168.533l-11.093-51.2c-2.047-9.569-10.431-16.64-20.467-16.64-0.005 0-0.009 0-0.014 0h-76.373l-3.84 0.427c-9.607 2.211-16.663 10.689-16.663 20.816 0 1.543 0.164 3.048 0.475 4.498l-0.025-0.14 11.947 54.187c-47.972 12.277-89.41 35.584-123.030 67.126l0.15-0.14v0.427c-3.721 3.709-6.024 8.839-6.024 14.507s2.302 10.798 6.023 14.506l0.001 0.001 42.667 41.387c3.728 3.499 8.76 5.649 14.293 5.649s10.565-2.15 14.305-5.66l-0.011 0.010c38.827-36.693 90.88-57.173 144.64-56.32 55.467 0 92.587 23.467 92.587 60.587s-37.547 46.933-108.373 73.387c-75.093 26.88-146.347 64.853-146.347 153.6 0 103.253 85.76 153.6 187.307 158.293l10.667 52.48c2.037 9.333 10.23 16.218 20.032 16.218 0.158 0 0.315-0.002 0.472-0.005h75.924l4.267-0.427c11.093-2.56 18.347-13.227 15.787-24.32l-11.52-58.453c38.4-12.8 74.667-32.853 105.813-59.307l0.853-0.853c8.107-8.533 8.107-21.333 0-29.013z" />
<glyph unicode="&#xe906;" glyph-name="discord" d="M862.805 938.667c59.989 0 108.373-48.512 111.232-105.6v-918.4l-114.219 96.981-62.72 57.088-68.437 59.648 28.587-94.080h-598.955c-59.819 0-108.373 45.44-108.373 105.643v692.907c0 57.088 48.64 105.685 108.587 105.685h704zM601.771 696.192h-1.28l-8.619-8.533c88.448-25.6 131.243-65.579 131.243-65.579-57.003 28.501-108.373 42.752-159.744 48.512-37.12 5.76-74.24 2.731-105.6 0h-8.533c-20.053 0-62.72-8.533-119.893-31.36-19.925-8.661-31.36-14.336-31.36-14.336s42.752 42.752 136.96 65.579l-5.76 5.76c0 0-71.339 2.731-148.352-54.187 0 0-77.013-134.144-77.013-299.52 0 0 42.667-74.24 159.701-77.056 0 0 17.067 22.741 34.347 42.752-65.707 19.968-91.307 59.904-91.307 59.904s5.717-2.816 14.293-8.533h2.56c1.28 0 1.877-0.64 2.56-1.28v-0.256c0.683-0.683 1.28-1.28 2.56-1.28 14.080-5.803 28.16-11.52 39.68-17.067 19.883-8.619 45.44-17.195 76.8-22.869 39.68-5.76 85.163-8.533 136.96 0 25.6 5.76 51.2 11.392 76.8 22.827 16.64 8.533 37.12 17.067 59.605 31.445 0 0-25.6-39.936-94.080-59.904 14.080-19.883 33.92-42.667 33.92-42.667 117.077 2.56 162.56 76.8 165.12 73.643 0 165.12-77.44 299.52-77.44 299.52-69.76 51.797-135.040 53.76-146.56 53.76zM608.939 507.904c29.995 0 54.187-25.6 54.187-56.96 0-31.573-24.32-57.173-54.187-57.173s-54.187 25.6-54.187 56.917c0.085 31.573 24.448 57.088 54.187 57.216zM415.104 507.904c29.867 0 54.016-25.6 54.016-56.96 0-31.573-24.32-57.173-54.187-57.173s-54.187 25.6-54.187 56.917c0 31.573 24.32 57.088 54.357 57.216z" />
<glyph unicode="&#xe907;" glyph-name="epicgames" d="M150.955 938.667c-58.539 0-80.128-21.589-80.128-80.128v-706.773c0-6.613 0.299-12.757 0.811-18.389 1.451-12.885 1.579-25.301 13.525-39.339 1.109-1.621 13.227-10.496 13.227-10.496 6.443-3.243 10.965-5.461 18.347-8.533l355.584-148.992c18.389-8.405 26.155-11.776 39.509-11.307h0.171c13.525-0.469 21.291 2.901 39.68 11.307l355.541 148.992c7.424 3.072 11.776 5.291 18.389 8.533 0 0 12.117 9.045 13.227 10.496 11.947 14.037 12.075 26.453 13.525 39.339 0.512 5.632 0.853 11.776 0.853 18.347v706.859c-0.043 58.496-21.675 80.085-80.213 80.085zM720.811 805.974h29.013c48.384 0 71.936-23.552 71.936-72.405v-80.171h-58.539v76.928c0 15.659-7.253 22.912-22.4 22.912h-9.984c-15.659 0-22.912-7.253-22.912-22.912v-248.021c0-15.616 7.253-22.869 22.912-22.869h11.093c15.019 0 22.272 7.253 22.272 22.869v88.747h58.709v-91.477c0-48.853-24.064-72.875-72.576-72.875h-29.525c-48.683 0-72.533 24.192-72.533 72.875v253.483c0 48.725 23.851 72.917 72.533 72.917zM200.789 802.731h132.864v-54.485h-73.216v-111.104h70.485v-54.357h-70.485v-118.357h74.197v-54.357h-133.845zM363.648 802.731h93.696c48.512 0 72.533-24.192 72.533-73.045v-104.32c0-48.853-24.021-72.917-72.533-72.917h-33.877v-142.379h-59.819zM556.843 802.731h59.648v-392.661h-59.648zM423.296 749.824v-144.64h24.704c14.976 0 22.229 7.253 22.229 23.040v98.56c0 15.787-7.253 23.040-22.229 23.040zM258.816 316.587h8.875l1.963-0.299h3.2l1.621-0.512h1.621l1.621-0.469 1.579-0.341 1.451-0.299 1.451-0.341 1.451-0.299 1.621-0.512 1.28-0.299 1.28-0.512 1.621-0.469 1.28-0.64 1.664-0.64 1.451-0.64 1.28-0.853 1.621-0.597 1.109-0.853 1.621-0.768 1.28-0.853 1.451-0.768 1.28-0.981 1.28-0.811 1.28-0.939 1.323-0.981 1.28-1.109 1.28-0.981-0.939-1.28-1.152-1.152-0.939-1.28-1.152-1.28-0.939-1.152-0.981-1.109-1.152-1.28-0.939-1.28-0.981-1.152-1.109-1.28-0.981-1.28-1.152-1.28-0.939-1.152-0.981-1.28-1.109-1.28-0.981-1.323-1.109-1.109-0.981-1.28-1.28 0.939-1.28 1.109-1.28 0.853-1.493 0.939-1.109 0.811-1.451 0.811-1.28 0.811-1.493 0.811-2.56 1.28-1.28 0.469-1.451 0.512-1.621 0.427-1.28 0.341-3.243 0.683-1.621 0.128h-1.749l-1.963 0.341h-3.2l-1.621-0.171h-1.621l-1.621-0.469-1.451-0.341-1.451-0.469-1.579-0.469-1.28-0.64-1.621-0.683-2.432-1.621-1.28-0.768-1.152-0.981-1.109-0.981-1.152-0.939-0.939-1.152-1.28-1.109-1.621-2.432-0.981-1.28-0.64-1.451-0.853-1.28-0.768-1.451-0.469-1.451-0.683-1.451-0.427-1.621-0.213-1.621-0.469-1.451-0.341-1.792v-1.579l-0.299-1.621v-3.84l0.171-1.664 0.128-1.451 0.171-1.579 0.341-1.621 0.469-1.28 0.171-1.621 0.469-1.28 0.512-1.28 0.64-1.664 0.811-1.579 0.64-1.28 0.811-1.28 0.939-1.323 0.981-1.28 0.811-1.152 1.28-1.109 0.981-1.152 1.109-0.939 2.56-1.963 1.323-0.811 1.28-0.768 1.451-0.683 1.621-0.64 1.28-0.64 1.621-0.469 1.621-0.512 1.621-0.299 1.579-0.341 1.621-0.171 1.963-0.128h5.291l1.963 0.299h1.579l1.621 0.512 1.621 0.299 1.621 0.512 1.451 0.299 1.451 0.64 1.28 0.64 1.621 0.683 0.981 0.64 1.28 0.811v14.805h-23.552v23.893h53.205v-53.248l-1.109-0.939-1.28-0.981-1.152-0.811-1.28-0.981-1.28-0.768-1.28-0.981-1.28-0.811-1.323-0.811-1.621-0.811-1.451-0.811-1.28-0.811-1.621-0.64-1.28-0.811-4.864-1.92-1.451-0.64-1.451-0.469-1.451-0.512-1.579-0.469-1.451-0.469-1.621-0.512-1.451-0.299-3.243-0.683-1.621-0.299-1.579-0.171-3.243-0.341-1.92-0.128-1.621-0.171-1.792-0.171h-8.363l-1.792 0.341h-1.621l-1.579 0.299h-1.621l-1.621 0.512-1.621 0.299-1.621 0.341-1.579 0.299-1.28 0.512-1.621 0.299-1.621 0.512-1.451 0.64-1.451 0.469-1.621 0.64-1.451 0.64-1.621 0.64-1.28 0.683-1.621 0.768-1.109 0.853-1.621 0.768-1.152 0.853-1.28 0.768-2.56 1.963-1.451 0.939-0.981 0.981-1.28 0.981-1.152 1.109-1.109 0.981-1.152 1.109-0.939 1.152-1.152 1.109-0.939 1.28-0.981 1.152-0.811 1.28-0.981 1.28-0.811 1.28-0.768 1.28-0.853 1.493-0.768 1.28-1.28 2.901-0.683 1.451-0.64 1.451-0.469 1.28-0.64 1.451-0.341 1.451-0.469 1.451-0.341 1.621-0.469 1.451-0.341 1.621-0.128 1.451-0.341 1.621-0.171 1.451-0.128 1.621-0.171 1.579-0.171 1.621v8.875l0.341 1.621v1.749l0.427 1.621v1.621l0.512 1.621 0.512 1.579 0.299 1.621 0.469 1.451 0.512 1.621 0.469 1.451 0.64 1.621 0.64 1.451 0.683 1.451 1.28 2.901 0.811 1.451 0.811 1.28 0.768 1.28 0.853 1.28 0.768 1.28 0.981 1.323 0.981 1.28 0.939 1.28 1.152 1.152 0.939 1.109 0.981 1.152 1.28 1.109 0.981 1.152 1.28 0.981 1.152 1.109 1.28 0.981 1.28 0.939 1.28 0.853 1.28 0.939 1.28 0.811 1.323 0.811 1.451 0.811 1.621 0.811 1.28 0.768 1.621 0.683 1.451 0.64 1.621 0.811 1.28 0.427 1.621 0.512 1.451 0.64 1.451 0.341 1.451 0.469 1.621 0.341 1.451 0.469 1.579 0.341h1.621l1.621 0.469h1.621l1.621 0.341h1.579zM770.347 316.288h8.832l1.963-0.341h3.2l1.621-0.469h1.92l1.621-0.512 1.451-0.299 1.621-0.341 1.621-0.299 1.451-0.341 1.621-0.469 1.579-0.512 1.28-0.299 1.621-0.64 1.621-0.512 1.28-0.64 3.243-1.28 1.451-0.853 1.152-0.597 1.579-0.853 1.451-0.768 1.28-0.811 1.493-0.981 1.28-0.768 2.56-1.963 1.28-0.939-0.939-1.28-0.811-1.323-0.981-1.28-0.939-1.28-0.981-1.451-0.811-1.28-0.981-1.28-0.939-1.323-0.853-1.28-0.939-1.28-0.981-1.28-0.939-1.323-0.853-1.451-0.939-1.28-1.109-1.28-0.853-1.28-0.939-1.323-1.28 0.981-1.451 0.811-1.28 0.768-1.28 0.981-1.493 0.64-1.28 0.853-1.621 0.597-1.109 0.64-1.621 0.683-1.28 0.64-1.28 0.469-1.451 0.64-1.621 0.469-1.621 0.512-1.621 0.469-1.749 0.341-1.621 0.299-1.621 0.341-1.621 0.171-1.579 0.171-1.451 0.128h-3.584l-1.749-0.299-1.621-0.341-1.621-0.299-1.28-0.683-1.109-0.64-1.451-1.28-0.981-1.451-0.64-1.451v-4.011l0.811-1.792 0.64-0.981 1.109-1.109 1.621-0.853 1.28-0.768 3.243-1.28 2.091-0.64 1.28-0.341 1.28-0.469 1.621-0.341 1.28-0.469 1.621-0.341 1.792-0.469 1.749-0.469 1.792-0.512 1.792-0.299 1.579-0.512 1.792-0.469 1.621-0.341 1.579-0.469 1.621-0.469 1.621-0.512 1.621-0.469 1.451-0.469 1.621-0.512 1.579-0.64 1.621-0.811 1.621-0.64 3.243-1.621 1.28-0.811 1.28-0.768 1.451-0.981 1.152-0.853 1.451-1.109 3.541-3.541 0.811-1.28 1.109-1.621 0.811-1.109 0.64-1.621 0.811-1.109 0.469-1.621 0.512-1.28 0.299-1.621 0.341-1.621 0.299-1.621 0.171-1.621 0.171-1.579v-4.053l-0.171-1.749-0.171-1.621-0.128-1.792-0.341-1.621-0.469-1.579-0.341-1.621-0.469-1.621-0.64-1.451-0.64-1.28-0.683-1.451-0.768-1.28-0.981-1.28-0.853-1.28-0.768-1.323-1.109-1.152-0.981-1.109-1.152-0.981-1.28-1.109-1.109-0.981-1.28-0.981-1.28-0.768-1.323-0.981-2.901-1.451-1.621-0.853-1.621-0.597-1.579-0.64-1.621-0.512-1.621-0.469-1.28-0.469-3.243-0.683-1.28-0.299-1.621-0.341h-1.621l-1.579-0.299h-1.621l-1.621-0.341h-11.947l-1.579 0.171-1.621 0.171-1.792 0.128-1.621 0.341-1.579 0.171-1.621 0.299-1.621 0.341-1.792 0.469-1.579 0.341-1.621 0.469-1.621 0.341-1.621 0.469-1.579 0.512-1.621 0.64-1.451 0.469-1.621 0.469-1.621 0.683-1.28 0.64-1.621 0.64-1.28 0.811-1.621 0.64-1.451 0.811-1.109 0.811-1.621 0.811-1.152 0.768-1.451 0.853-1.28 0.939-1.28 0.981-1.28 0.939-1.28 0.981-1.152 0.981-1.28 1.109 0.939 1.28 1.152 1.152 0.981 1.28 1.109 1.28 0.981 1.152 0.939 1.28 1.152 1.28 0.981 1.152 1.109 1.28 0.981 1.109 1.109 1.28 0.981 1.28 0.939 1.152 1.152 1.28 0.981 1.28 1.109 1.152 1.152 1.28 1.109-0.939 1.621-0.981 1.109-0.981 1.621-0.939 1.28-0.853 1.451-0.939 1.28-0.811 1.493-0.64 1.28-0.811 1.451-0.64 1.621-0.64 1.28-0.64 1.621-0.469 1.28-0.683 1.621-0.427 1.579-0.512 1.621-0.512 1.621-0.299 1.621-0.341 1.621-0.299h1.749l1.621-0.512h8.875l1.621 0.341 1.579 0.341 1.28 0.299 1.28 0.469 1.152 0.683 1.451 0.939 0.853 1.152 0.768 1.28 0.469 1.621v3.712l-0.64 1.579-0.939 1.28-0.981 0.981-1.451 0.981-1.152 0.64-1.579 0.64-1.621 0.64-1.92 0.853-1.152 0.299-1.28 0.341-1.621 0.427-1.28 0.341-1.621 0.512-1.621 0.299-1.749 0.512-1.621 0.299-1.792 0.512-1.579 0.299-1.621 0.512-1.621 0.299-1.621 0.512-1.621 0.427-1.579 0.341-1.451 0.512-1.451 0.469-1.451 0.512-1.621 0.64-1.792 0.64-1.621 0.64-1.579 0.64-3.243 1.621-1.109 0.811-1.621 0.811-1.152 0.939-1.451 0.853-0.939 0.939-1.152 1.109-1.28 1.152-0.981 1.109-0.939 1.152-0.853 1.109-0.768 1.28-0.853 1.451-0.597 1.152-0.512 1.28-0.469 1.451-0.469 1.28-0.341 1.621-0.299 1.451v1.621l-0.341 1.621v6.912l0.341 3.243 0.299 1.28 0.341 1.621 0.469 1.28 0.341 1.621 0.64 1.28 0.64 1.621 1.451 2.901 0.811 1.28 1.109 1.28 0.853 1.28 1.28 1.28 1.109 1.152 0.981 1.28 1.451 1.152 0.939 0.811 1.451 0.981 1.28 0.939 1.28 0.853 1.621 0.768 1.28 0.64 1.664 0.811 1.28 0.64 1.621 0.512 1.579 0.64 1.621 0.469 1.152 0.341 1.579 0.299 1.28 0.341 1.621 0.299 1.621 0.341 3.243 0.341 1.621 0.128zM376.235 315.136h30.165l1.92-4.352 0.469-1.621 1.28-2.901 0.683-1.451 0.64-1.451 0.469-1.451 0.811-1.579 0.64-1.451 0.64-1.493 0.341-1.451 0.64-1.451 0.811-1.451 0.64-1.579 0.64-1.451 0.469-1.451 0.64-1.451 0.853-1.451 0.427-1.451 0.683-1.621 0.469-1.621 0.64-1.28 0.853-1.621 0.597-1.28 0.64-1.621 0.512-1.621 0.469-1.28 1.451-2.901 0.64-1.621 0.469-1.28 0.683-1.621 0.811-1.621 0.64-1.451 0.939-2.901 0.64-1.451 0.853-1.451 0.597-1.579 0.683-1.493 0.427-1.451 0.683-1.451 1.28-2.901 0.64-1.579 0.512-1.451 0.64-1.451 0.811-1.451 1.28-2.901 0.341-1.621 0.64-1.451 0.811-1.451 0.64-1.451 0.469-1.451 0.64-1.451 0.64-1.621 0.853-1.621 0.427-1.28 0.683-1.621 0.469-1.28 0.64-1.621 1.451-2.901 0.469-1.621 0.683-1.28 0.469-1.621 0.811-1.28 0.64-1.621 0.469-1.621 0.64-1.28 0.683-1.621 0.768-1.28 0.683-1.621 0.427-1.579 0.512-1.28 0.64-1.621 0.853-1.28h-33.408l-0.853 1.408-0.427 1.451-0.683 1.451-0.64 1.621-0.469 1.451-1.28 2.901-0.512 1.451-1.28 2.901-0.469 1.451-0.64 1.621-0.64 1.451-0.512 1.451-0.64 1.451h-46.293l-0.64-1.621-0.469-1.28-0.64-1.621-0.811-1.579-0.341-1.28-0.64-1.664-0.64-1.28-0.469-1.621-0.64-1.28-0.64-1.621-0.512-1.28-0.64-1.621-0.64-1.579-0.64-1.28-0.469-1.621h-33.067l0.64 1.579 1.28 2.901 0.512 1.621 0.427 1.451 0.853 1.451 1.28 2.901 0.469 1.451 0.64 1.621 0.853 1.451 0.597 1.451 0.512 1.451 0.469 1.451 0.64 1.451 0.853 1.621 0.597 1.451 0.64 1.451 0.512 1.451 1.28 2.901 1.28 3.243 0.512 1.28 0.64 1.621 0.811 1.28 0.64 1.621 0.469 1.579 0.469 1.28 0.64 1.621 0.853 1.28 0.597 1.621 0.683 1.28 0.427 1.621 0.683 1.621 0.811 1.28 0.469 1.621 0.64 1.28 0.512 1.621 0.64 1.621 0.811 1.28 0.64 1.621 0.469 1.28 0.64 1.621 0.512 1.28 0.811 1.621 0.64 1.621 0.64 1.451 0.469 1.451 0.64 1.451 0.853 1.451 0.597 1.451 0.341 1.621 1.28 2.901 0.811 1.451 0.64 1.451 0.469 1.451 0.683 1.621 0.64 1.579 0.64 1.28 0.64 1.621 0.469 1.28 1.28 3.243 0.853 1.28 0.597 1.621 0.512 1.28 0.469 1.621 0.64 1.28 0.853 1.621 0.597 1.621 0.512 1.28 0.64 1.621 1.451 2.901 0.469 1.621 0.469 1.28 0.683 1.621zM469.76 314.326h33.067l0.939-1.28 0.853-1.451 0.939-1.28 0.811-1.451 0.811-1.28 0.811-1.451 0.768-1.28 0.981-1.493 1.621-2.56 0.811-1.451 0.811-1.28 1.109-1.451 0.64-1.28 0.853-1.493 0.939-1.28 0.981-1.28 0.64-1.451 0.939-1.28 0.853-1.451 0.597-1.28 1.152-1.493 0.811-1.28 0.811-1.451 0.811-1.28 0.768-1.28 0.981-1.451 0.811-1.28 0.811-1.493 0.811-1.28 0.811-1.451 0.939-1.28 0.853-1.451 0.768-1.28 0.981 1.28 0.64 1.621 0.981 1.109 0.939 1.621 0.853 1.109 0.597 1.621 1.152 1.152 0.811 1.579 0.64 1.152 0.981 1.28 0.939 1.621 0.853 1.109 0.768 1.621 0.811 1.152 0.981 1.579 0.768 1.152 0.853 1.621 0.768 1.109 0.853 1.28 0.939 1.621 0.811 1.152 0.811 1.579 0.939 1.152 0.853 1.621 0.768 1.109 0.981 1.28 0.811 1.621 0.939 1.152 0.853 1.579 0.768 1.152 0.853 1.621 0.939 1.109 0.811 1.621 0.811 1.109h33.365v-118.997h-31.317v69.973l-0.768-1.109-0.981-1.621-0.811-1.109-0.981-1.28-0.811-1.621-0.939-1.152-0.853-1.28-0.939-1.621-0.811-1.109-0.811-1.28-1.109-1.28-0.811-1.664-0.981-1.109-0.811-1.28-0.768-1.621-0.981-1.109-0.811-1.28-0.981-1.621-0.811-1.152-0.939-1.28-0.853-1.621-0.768-1.109-0.981-1.28-0.811-1.621-0.939-1.152-0.981-1.28-0.811-1.28-0.811-1.621-0.981-1.152-0.939-1.28-0.64-1.621-1.152-1.109-0.811-1.28-0.939-1.621-0.853-1.152h-0.597l-0.981 1.451-0.811 1.28-0.981 1.493-0.811 1.28-0.939 1.451-0.853 1.28-0.939 1.451-0.811 1.28-0.939 1.451-0.853 1.28-1.109 1.493-0.64 1.28-0.981 1.451-0.939 1.28-0.853 1.451-0.939 1.28-0.811 1.621-0.939 1.28-0.853 1.451-0.939 1.28-0.811 1.493-0.981 1.28-0.768 1.451-0.981 1.28-0.811 1.451-0.981 1.28-0.811 1.451-0.939 1.28-0.853 1.493-0.939 1.28-0.811 1.451-1.109 1.28-0.64 1.451-0.981 1.28v-70.144h-30.933v117.76zM617.813 314.326h93.824v-26.88h-62.72v-19.072h56.405v-25.301h-56.363v-20.48h63.531v-26.923h-94.507zM390.912 277.888l-0.64-1.621-0.512-1.28-0.64-1.621-0.64-1.579-0.469-1.451-0.64-1.451-0.683-1.621-0.64-1.621-0.469-1.28-0.64-1.621-0.64-1.28-0.512-1.621-0.64-1.621-0.64-1.28-0.469-1.621-0.64-1.28-0.64-1.621-0.683-1.621-0.427-1.28-0.683-1.621-0.64-1.621-0.469-1.28-0.683-1.621h27.435l-0.64 1.621-0.512 1.451-0.64 1.621-0.64 1.451-0.469 1.451-0.64 1.451-0.64 1.621-0.512 1.451-1.28 2.901-0.469 1.451-0.64 1.621-0.512 1.451-1.28 2.901-0.469 1.451-0.64 1.579-0.64 1.621-0.512 1.28-1.28 3.243-0.469 1.451zM341.845 55.040h341.888l-174.507-57.6z" />
<glyph unicode="&#xe908;" glyph-name="facebook" d="M1023.919 426.705c0 282.748-229.21 511.962-511.957 511.962s-511.962-229.214-511.962-511.962c0-255.535 187.217-467.332 431.966-505.741v357.751h-129.988v147.989h129.988v112.794c0 128.311 76.433 199.185 193.374 199.185 56.013 0 114.603-10.001 114.603-10.001v-125.99h-64.555c-63.599 0-83.435-39.462-83.435-79.949v-96.038h141.99l-22.699-147.989h-119.292v-357.751c244.753 38.409 431.966 250.206 431.966 505.741z" />
<glyph unicode="&#xe909;" glyph-name="github" d="M512 925.995c-282.88 0-512-229.248-512-512 0-226.261 146.688-418.133 350.080-485.76 25.6-4.821 34.987 11.008 34.987 24.619 0 12.16-0.427 44.373-0.64 87.040-142.421-30.891-172.459 68.693-172.459 68.693-23.296 59.093-56.96 74.88-56.96 74.88-46.379 31.744 3.584 31.104 3.584 31.104 51.413-3.584 78.421-52.736 78.421-52.736 45.653-78.293 119.851-55.68 149.12-42.581 4.608 33.109 17.792 55.68 32.427 68.48-113.707 12.8-233.216 56.832-233.216 253.013 0 55.893 19.84 101.547 52.693 137.387-5.76 12.928-23.040 64.981 4.48 135.509 0 0 42.88 13.739 140.8-52.48 40.96 11.392 84.48 17.024 128 17.28 43.52-0.256 87.040-5.888 128-17.28 97.28 66.219 140.16 52.48 140.16 52.48 27.52-70.528 10.24-122.581 5.12-135.509 32.64-35.84 52.48-81.493 52.48-137.387 0-196.693-119.68-240-233.6-252.587 17.92-15.36 34.56-46.763 34.56-94.72 0-68.523-0.64-123.563-0.64-140.203 0-13.44 8.96-29.44 35.2-24.32 204.843 67.157 351.403 259.157 351.403 485.077 0 282.752-229.248 512-512 512z" />
<glyph unicode="&#xe90a;" glyph-name="gmail" d="M1024 746.667v-640c0-36.267-27.733-64-64-64h-64v580.821l-384-275.755-384 275.755v-580.821h-64c-36.309 0-64 27.733-64 64v640c0 18.133 6.912 34.133 18.389 45.568 11.477 11.605 27.52 18.432 45.611 18.432h21.333l426.667-309.333 426.667 309.333h21.333c18.133 0 34.133-6.912 45.611-18.432 11.52-11.435 18.389-27.435 18.389-45.568z" />
<glyph unicode="&#xe90c;" glyph-name="googlepay" d="M1024 512l-133.717-298.667h-41.301l49.621 104.533-87.936 194.133h43.52l63.573-148.907h0.853l61.781 148.907zM468.608 419.584v-120.917h-41.941v298.667h111.232c0.785 0.021 1.708 0.033 2.635 0.033 26.587 0 50.883-9.805 69.471-25.997l-0.127 0.108c19.541-16.085 30.507-39.040 30.123-63.061 0.004-0.289 0.006-0.63 0.006-0.972 0-25.201-11.702-47.668-29.969-62.265l-0.159-0.123c-19.413-16.981-43.435-25.429-71.979-25.429zM468.523 560.555v-104.277h70.315c15.573-0.427 30.635 5.205 41.515 15.445 10.752 9.6 16.853 22.741 16.853 36.523 0 13.739-6.101 26.88-16.853 36.48-10.267 9.819-24.216 15.862-39.576 15.862-0.682 0-1.361-0.012-2.037-0.036l0.098 0.003zM724.139 512c26.752 0 47.872-7.424 63.36-22.272 15.445-14.848 23.168-35.243 23.168-61.099v-123.435h-34.603v27.819h-1.579c-14.976-22.912-34.901-34.347-59.733-34.347-21.248 0-38.997 6.528-53.333 19.627-13.175 11.724-21.434 28.727-21.434 47.659 0 0.495 0.006 0.989 0.017 1.481l-0.001-0.073c0 20.693 7.552 37.163 22.613 49.408s35.2 18.347 60.373 18.389c21.461 0 39.168-4.096 53.035-12.245v8.576c0.002 0.138 0.002 0.3 0.002 0.463 0 13.071-5.762 24.796-14.885 32.773l-0.051 0.043c-8.966 8.508-21.112 13.74-34.481 13.74-0.148 0-0.296-0.001-0.443-0.002h0.023c-20.224 0-36.224-8.875-47.957-26.581l-31.872 20.821c17.493 26.155 43.435 39.253 77.781 39.253zM677.333 366.507c-0.001-0.089-0.001-0.193-0.001-0.298 0-9.859 4.69-18.622 11.96-24.181l0.073-0.054c7.979-6.528 17.92-9.984 28.117-9.813 15.232 0.043 29.867 6.4 40.661 17.579 11.087 10.245 18.006 24.861 18.006 41.092 0 0.058 0 0.117 0 0.175v-0.009c-11.307 9.387-27.008 14.037-47.189 14.037-14.72 0-26.965-3.712-36.779-11.093-9.899-7.424-14.848-16.512-14.848-27.435zM174.123 597.334c0.637 0.009 1.389 0.014 2.143 0.014 44.14 0 84.332-16.9 114.46-44.583l-0.122 0.111-49.664-48.725c-17.016 15.872-39.928 25.615-65.116 25.615-0.598 0-1.194-0.005-1.789-0.016l0.089 0.001c-45.144-0.282-83.437-29.3-97.528-69.671l-0.222-0.729c-3.469-9.741-5.474-20.978-5.474-32.683s2.005-22.941 5.69-33.385l-0.216 0.702c14.312-41.1 52.606-70.118 97.715-70.4h0.034c23.509 0 43.648 5.888 59.307 16.256 18.304 11.947 30.848 30.72 34.731 51.925h-94.037v65.707h164.224c2.005-11.477 2.987-23.040 2.987-34.688 0-51.925-18.944-95.872-51.797-125.568-28.843-26.112-68.437-41.216-115.413-41.216-0.213-0.001-0.464-0.001-0.716-0.001-66.972 0-125.133 37.727-154.389 93.089l-0.458 0.95c-11.684 22.267-18.539 48.648-18.539 76.629s6.856 54.362 18.979 77.554l-0.44-0.924c29.714 56.311 87.874 94.039 154.847 94.039 0.252 0 0.503-0.001 0.755-0.002h-0.039z" />
<glyph unicode="&#xe90d;" glyph-name="instagram" d="M512 938.667c-139.093 0-156.459-0.64-211.072-3.072-54.528-2.56-91.648-11.136-124.288-23.808-33.664-13.056-62.251-30.592-90.709-59.051s-46.037-57.003-59.051-90.709c-12.672-32.64-21.291-69.76-23.808-124.288-2.56-54.613-3.072-71.979-3.072-211.072s0.64-156.459 3.072-211.072c2.56-54.485 11.136-91.648 23.808-124.288 13.056-33.621 30.592-62.251 59.051-90.709 28.459-28.416 57.003-46.037 90.709-59.051 32.683-12.629 69.803-21.291 124.288-23.808 54.613-2.56 71.979-3.072 211.072-3.072s156.459 0.64 211.072 3.072c54.485 2.56 91.648 11.179 124.288 23.808 33.621 13.056 62.251 30.635 90.709 59.051 28.416 28.459 46.037 56.96 59.051 90.709 12.629 32.64 21.291 69.803 23.808 124.288 2.56 54.613 3.072 71.979 3.072 211.072s-0.64 156.459-3.072 211.072c-2.56 54.485-11.179 91.691-23.808 124.288-13.056 33.664-30.635 62.251-59.051 90.709-28.459 28.459-56.96 46.037-90.709 59.051-32.64 12.672-69.803 21.291-124.288 23.808-54.613 2.56-71.979 3.072-211.072 3.072zM512 846.507c136.661 0 152.96-0.683 206.933-3.029 49.92-2.347 77.013-10.624 95.019-17.707 23.979-9.259 40.96-20.352 58.965-38.229 17.877-17.92 28.971-34.944 38.229-58.923 6.997-18.005 15.36-45.099 17.621-95.019 2.432-54.016 2.987-70.229 2.987-206.933s-0.64-152.96-3.157-206.933c-2.603-49.92-10.923-77.013-17.963-95.019-9.557-23.979-20.437-40.96-38.357-58.965-17.877-17.877-35.157-28.971-58.88-38.229-17.92-6.997-45.44-15.36-95.36-17.621-54.357-2.432-70.357-2.987-207.317-2.987-137.003 0-153.003 0.64-207.317 3.157-49.963 2.603-77.483 10.923-95.403 17.963-24.277 9.557-40.96 20.437-58.837 38.357-17.963 17.877-29.44 35.157-38.4 58.88-7.040 17.92-15.317 45.44-17.92 95.36-1.92 53.76-2.603 70.357-2.603 206.677 0 136.363 0.683 153.003 2.603 207.403 2.603 49.92 10.88 77.397 17.92 95.317 8.96 24.32 20.437 40.96 38.4 58.923 17.877 17.877 34.56 29.397 58.837 38.315 17.92 7.083 44.843 15.403 94.763 17.963 54.4 1.92 70.4 2.56 207.317 2.56zM512 689.579c-145.28 0-262.912-117.76-262.912-262.912 0-145.28 117.76-262.912 262.912-262.912 145.28 0 262.912 117.76 262.912 262.912 0 145.28-117.76 262.912-262.912 262.912zM512 256c-94.293 0-170.667 76.373-170.667 170.667s76.373 170.667 170.667 170.667 170.667-76.373 170.667-170.667-76.373-170.667-170.667-170.667zM846.763 699.947c0-33.92-27.563-61.44-61.44-61.44-33.92 0-61.44 27.563-61.44 61.44s27.563 61.397 61.44 61.397c33.835 0.043 61.44-27.52 61.44-61.397z" />
<glyph unicode="&#xe90e;" glyph-name="linkedin" d="M872.405 66.048h-151.637v237.611c0 56.661-1.152 129.579-79.019 129.579-79.061 0-91.136-61.653-91.136-125.397v-241.792h-151.637v488.619h145.664v-66.603h1.963c20.352 38.4 69.845 78.933 143.787 78.933 153.643 0 182.059-101.12 182.059-232.747zM227.712 621.526c-48.811 0-88.021 39.509-88.021 88.107 0 48.555 39.253 88.021 88.021 88.021 48.64 0 88.064-39.467 88.064-88.021 0-48.597-39.467-88.107-88.064-88.107zM303.744 66.048h-152.064v488.619h152.064zM948.267 938.667h-872.704c-41.771 0-75.563-33.024-75.563-73.771v-876.459c0-40.789 33.792-73.771 75.563-73.771h872.576c41.728 0 75.861 32.981 75.861 73.771v876.459c0 40.747-34.133 73.771-75.861 73.771z" />
<glyph unicode="&#xe90f;" glyph-name="messenger" d="M0 442.027c0 285.44 223.573 496.64 512 496.64s512-211.2 512-496.64-223.573-496.64-512-496.64c-51.627 0-101.547 6.827-148.053 19.627-3.193 0.894-6.86 1.408-10.647 1.408-6.032 0-11.76-1.304-16.917-3.646l0.257 0.104-101.973-44.8c-4.899-2.236-10.625-3.54-16.656-3.54-22.216 0-40.301 17.686-40.942 39.747l-0.001 0.059-2.987 91.307c-0.5 11.541-5.653 21.787-13.617 28.981l-0.036 0.032c-98.714 89.298-160.47 217.866-160.47 360.857 0 2.286 0.016 4.569 0.047 6.848l-0.004-0.345zM354.987 535.467l-150.187-238.933c-14.933-22.613 13.653-48.64 34.987-32l161.707 122.453c11.093 8.533 25.6 8.533 37.12 0l119.467-89.6c35.84-26.88 87.040-17.067 110.933 20.48l150.187 238.933c14.933 22.613-13.653 48.213-34.987 32l-161.707-122.453c-10.667-8.533-25.6-8.533-36.693 0l-119.467 89.6c-12.716 9.688-28.823 15.521-46.293 15.521-27.292 0-51.26-14.236-64.881-35.688l-0.186-0.313z" />
<glyph unicode="&#xe910;" glyph-name="notion" d="M190.251 759.126c31.829-25.856 43.776-23.893 103.595-19.883l563.84 33.835c11.947 0 2.005 11.947-1.963 13.909l-93.696 67.712c-17.92 13.909-41.856 29.867-87.68 25.899l-545.92-39.851c-19.883-1.963-23.893-11.947-15.957-19.883zM224.085 627.712v-593.237c0-31.872 15.915-43.819 51.797-41.813l619.648 35.84c35.883 1.963 39.893 23.893 39.893 49.792v589.269c0 25.856-9.941 39.808-31.915 37.845l-647.552-37.845c-23.893-2.005-31.872-13.952-31.872-39.851zM835.797 595.926c3.968-17.92 0-35.84-17.92-37.888l-29.867-5.973v-437.931c-25.941-13.952-49.835-21.931-69.76-21.931-31.915 0-39.893 9.984-63.787 39.808l-195.285 306.603v-296.619l61.781-13.995c0 0 0-35.84-49.835-35.84l-137.472-7.936c-3.968 7.936 0 27.861 13.952 31.829l35.84 9.941v392.235l-49.707 4.011c-4.011 17.92 5.973 43.776 33.835 45.781l147.456 9.941 203.264-310.571v274.773l-51.84 5.931c-3.968 21.931 11.947 37.845 31.872 39.808zM82.603 894.507l567.893 41.813c69.717 5.973 87.68 2.005 131.499-29.867l181.291-127.403c29.867-21.888 39.851-27.861 39.851-51.755v-698.795c0-43.776-15.915-69.717-71.68-73.643l-659.541-39.851c-41.813-2.005-61.781 3.968-83.712 31.872l-133.504 173.227c-23.893 31.872-33.835 55.723-33.835 83.627v621.141c0 35.797 15.957 65.707 61.739 69.632z" />
<glyph unicode="&#xe911;" glyph-name="paypal" d="M294.741-85.333h-132.437c-28.331 0-46.336 22.571-39.936 50.347l6.357 28.757h88.363c28.416 0 57.003 22.741 63.232 50.432l45.397 195.925c6.4 27.648 34.816 50.347 63.147 50.347h37.675c161.664 0 287.317 33.237 377.173 99.84s134.827 153.6 134.827 261.76c0 48-8.32 87.68-25.088 118.997 0 0.683-0.683 1.323-0.683 1.963l5.76-3.2c32-19.84 56.32-45.397 73.003-77.397 17.237-32 25.515-71.68 25.515-119.083 0-108.16-44.757-195.157-134.997-261.76-89.6-65.92-215.68-99.157-376.917-99.157h-38.4c-28.16 0-56.917-22.4-63.317-50.603l-45.44-196.48c-6.357-27.52-34.56-49.92-62.72-49.92zM180.523 29.654h-132.48c-28.288 0-46.251 22.571-39.936 50.347l186.581 808.235c6.443 27.861 34.773 50.432 63.189 50.432h275.84c59.52 0 111.317-4.181 155.648-12.331 44.16-8.064 81.92-22.144 114.517-42.24 31.403-19.84 56.405-45.739 72.405-77.568 16.597-31.915 24.917-71.68 24.917-119.339 0-108.16-44.843-195.157-134.997-261.077-89.6-66.603-215.723-99.243-377.003-99.243h-37.675c-28.16 0-56.661-22.357-63.061-49.877l-45.269-195.797c-6.357-27.563-34.859-50.005-63.36-50.005zM498.219 770.731h-43.264c-28.416 0-56.832-22.571-63.147-50.261l-39.68-171.52c-6.4-27.648 11.52-50.304 39.68-50.304h32.683c70.997 0 126.72 14.635 166.4 43.563 39.637 29.269 59.52 70.571 59.52 124.245 0 35.413-12.843 61.653-38.4 78.507-25.6 17.237-64 25.813-114.603 25.813z" />
<glyph unicode="&#xe912;" glyph-name="reddit" d="M94.037 339.243c-2.56-11.776-3.883-23.893-3.883-36.139 0-146.901 187.819-266.624 418.731-266.624 230.827 0 418.645 119.637 418.645 266.624 0 11.691-1.237 23.296-3.499 34.517l-0.64 1.365c-0.896 2.347-1.237 4.693-1.237 7.040-12.885 50.133-47.659 95.616-97.963 132.395-1.92 0.683-3.755 1.664-5.376 2.987-1.109 0.853-1.92 1.792-2.859 2.731-76.459 52.651-185.856 85.675-307.029 85.675-120.107 0-228.437-32.384-304.896-84.096-0.597-0.768-1.237-1.408-2.091-2.091-1.664-1.408-3.584-2.56-5.547-3.2-51.456-36.779-87.125-82.645-100.437-133.248 0-2.475-0.597-4.864-1.579-7.296zM511.019 107.094c-76.544 0-130.432 16.597-164.821 51.072-7.381 7.424-7.381 19.499 0 26.965 7.509 7.040 19.627 7.040 27.093 0 26.88-26.837 71.893-40.235 137.728-40.235 65.792 0 110.549 12.8 137.344 39.637 7.040 6.997 19.2 6.997 26.837 0 7.040-7.68 7.040-19.84 0-27.52-34.517-34.475-88.107-51.115-164.779-51.115zM357.163 430.208c-38.997 0-71.552-32.64-71.552-71.552 0-38.827 32.555-70.4 71.552-70.4s70.443 31.573 70.443 70.4c0 38.912-31.531 71.552-70.443 71.552zM665.771 430.208c-38.997 0-71.595-32.64-71.595-71.552 0-38.827 32.597-70.4 71.595-70.4s70.443 31.573 70.443 70.4c0 38.912-31.531 71.552-70.443 71.552zM859.819 498.262c44.245-35.541 76.8-77.696 93.397-123.904 19.2 14.336 30.677 36.864 30.677 61.824 0 42.752-34.773 77.483-77.568 77.483-17.024 0-33.195-5.504-46.507-15.488zM115.669 513.579c-42.795 0-77.525-34.816-77.525-77.568 0-23.168 10.197-44.715 27.477-59.264 17.109 46.037 50.005 87.595 94.421 122.709-12.885 8.96-28.288 14.037-44.331 14.037zM508.928-1.792c-251.989 0-456.917 136.747-456.917 304.725 0 11.733 0.981 23.211 2.901 34.517-33.835 21.035-54.912 58.112-54.912 98.731 0 63.829 52.352 115.755 116.267 115.755 28.757 0 55.595-10.496 76.672-29.099 79.189 50.816 185.899 82.816 303.445 84.992l77.312 235.691 17.237-4.053c0 0 0.683 0 0.683-0.085l180.181-42.368c14.677 34.048 48.555 58.027 88.107 58.027 52.437 0 95.189-42.837 95.189-95.317 0-52.565-42.795-95.317-95.189-95.317s-95.147 42.837-95.147 95.147l-164.309 38.912-62.592-191.019c113.067-4.48 215.339-36.437 292.011-86.229 21.077 19.797 48.811 30.677 78.208 30.677 63.915 0 115.968-51.755 115.968-115.669 0-42.112-23.040-80.469-58.795-100.907 1.237-10.88 2.517-21.077 2.517-31.957-0.64-168.021-205.056-304.768-457.387-304.768zM857.899 816.854c-31.573 0-57.173-25.557-57.173-57.088 0-31.488 25.6-57.173 57.173-57.173 31.232 0 56.747 25.6 56.747 56.917 0 31.275-25.515 56.832-57.472 56.832z" />
<glyph unicode="&#xe913;" glyph-name="skype" d="M514.944 133.376c-171.648 0-248.32 84.437-248.32 147.797 0 32.64 23.936 55.296 56.875 55.296 73.515 0 54.315-105.685 191.445-105.685 70.016 0 108.8 38.187 108.8 77.269 0 23.509-11.477 49.493-57.771 60.971l-152.576 38.187c-122.88 30.891-145.195 97.536-145.195 160.043 0 130.005 122.069 178.816 236.757 178.816 105.429 0 230.101-58.581 230.101-136.491 0-33.451-29.355-52.907-61.995-52.907-62.677 0-51.115 86.912-177.664 86.912-62.677 0-97.792-28.331-97.792-68.992s49.195-53.675 92.032-63.445l112.512-25.045c123.349-27.691 154.624-100.096 154.624-168.277 0-105.643-81.152-184.491-244.139-184.491zM985.557 341.632l-1.237-5.76-1.877 10.24c0.64-1.92 1.877-3.157 2.517-5.12 5.12 28.8 7.723 58.155 7.723 87.552 0 65.237-12.843 128.512-38.315 188.587-24.277 57.515-59.52 109.312-103.552 153.429-44.757 44.075-95.872 79.189-153.387 103.509-56.235 26.923-119.509 39.68-184.661 39.68-30.72 0-61.611-2.987-91.435-8.704l5.077-2.56-10.197 1.408 5.077 1.067c-41.131 22.016-87.253 33.707-134.101 33.707-76.331 0-148.053-29.781-202.069-83.925-54.016-54.101-83.755-126.123-83.755-202.624 0-48.768 12.459-96.64 36.011-139.008l0.853 5.291 1.749-10.197-2.56 4.907c-4.864-27.52-7.339-55.424-7.339-83.413 0-65.28 12.8-128.725 37.717-188.416 24.235-58.112 58.795-109.909 103.552-153.984 44.117-44.8 95.872-79.232 153.387-104.192 59.477-25.6 122.752-38.315 187.904-38.315 28.117 0 56.917 2.56 84.352 7.637l-5.077 2.645 10.24-1.963-5.76-1.28c42.752-24.277 90.709-37.163 140.544-37.163 76.075 0 147.584 29.44 201.941 83.755 53.717 53.717 83.712 125.909 83.712 202.624 0 48.555-12.757 96.512-36.395 139.349z" />
<glyph unicode="&#xe914;" glyph-name="snapchat" d="M520.789 904.832c42.24 0 185.472-11.776 253.013-163.029 22.571-50.901 17.195-137.344 12.757-206.805l-0.128-2.56c-0.512-7.68-0.939-14.72-1.28-21.76 3.2-1.92 8.661-3.84 17.109-3.84 12.8 0.683 28.117 5.12 44.075 12.843 7.040 3.755 14.677 4.437 19.797 4.437 7.765 0 15.317-1.237 21.717-3.84 19.2-6.357 31.317-20.437 31.317-35.755 0.64-19.157-16.64-35.797-51.755-49.835-3.797-1.237-8.917-3.2-14.677-5.077-19.2-5.76-48.597-15.36-56.875-34.56-3.84-9.557-2.603-22.357 5.12-37.035l0.64-0.64c2.56-5.803 65.109-148.267 204.416-171.264 10.88-1.877 18.56-11.52 17.92-21.717 0-3.2-0.64-6.357-1.92-9.6-10.24-24.277-54.315-42.155-134.229-54.229-2.517-3.883-5.12-16-6.997-24.32-1.237-7.637-3.157-15.36-5.717-23.595-3.243-11.563-11.52-17.28-23.68-17.28h-1.28c-5.76 0-13.355 1.323-22.955 3.157-15.36 3.2-32.64 5.76-54.315 5.76-12.8 0-25.557-0.64-38.955-3.157-25.6-4.437-47.915-19.797-73.515-37.717-36.395-25.557-77.909-54.955-140.544-54.955-2.56 0-5.077 0.64-7.68 0.64h-6.357c-62.635 0-103.552 28.8-139.904 54.955-25.557 17.92-47.232 33.237-72.832 37.717-13.397 1.92-26.837 3.157-39.595 3.157-23.040 0-40.875-3.797-54.272-6.357-9.003-1.835-16.683-3.157-23.040-3.157-15.957 0-22.315 9.557-24.875 17.92-2.603 8.192-3.84 16.597-5.76 24.192-1.963 7.723-4.48 21.077-7.083 24.32-81.835 9.472-125.867 27.392-136.064 52.309-1.323 2.688-2.219 6.4-2.347 9.6-0.64 10.368 7.040 19.84 17.92 21.717 139.264 23.040 201.813 165.504 204.416 171.52l0.683 1.237c7.68 14.72 9.557 27.52 5.077 37.077-8.32 18.517-37.717 28.075-56.832 34.517-5.163 1.237-10.24 3.157-14.763 5.077-47.232 18.56-53.632 39.68-51.072 54.315 3.84 20.437 28.757 33.835 49.835 33.835 6.229 0 11.52-1.237 16.341-3.157 17.92-8.277 33.664-12.8 47.104-12.8 9.984 0 16.384 2.56 19.84 4.48l-1.963 24.277c-4.181 69.376-9.6 155.776 13.099 206.379 65.664 150.485 208.469 162.005 250.624 162.005l17.877 0.64z" />
<glyph unicode="&#xe915;" glyph-name="spotify" d="M512 938.667c-281.6 0-512-230.4-512-512s230.4-512 512-512 512 230.4 512 512-227.84 512-512 512zM747.563 198.827c-10.24-15.317-28.16-20.48-43.563-10.24-120.32 74.24-271.36 89.643-450.603 48.683-17.835-5.205-33.237 7.637-38.357 22.997-5.12 17.963 7.68 33.28 23.040 38.4 194.56 43.563 363.52 25.6 496.64-56.32 17.92-7.68 20.437-28.117 12.843-43.52zM809.003 339.627c-12.843-17.92-35.883-25.6-53.845-12.8-138.197 84.48-348.117 110.080-509.397 58.88-20.437-5.12-43.52 5.12-48.64 25.6s5.12 43.563 25.6 48.683c186.88 56.277 417.28 28.075 576-69.163 15.403-7.723 23.040-33.28 10.283-51.2zM814.123 482.987c-163.883 97.28-437.803 107.52-593.963 58.837-25.6-7.637-51.2 7.723-58.88 30.763-7.68 25.643 7.68 51.2 30.72 58.923 181.76 53.76 481.28 43.52 670.763-69.163 22.997-12.8 30.677-43.52 17.877-66.56-12.757-17.963-43.52-25.557-66.517-12.8z" />
<glyph unicode="&#xe916;" glyph-name="steam" d="M511.104 938.667c-268.843 0-489.301-207.36-510.165-470.912l274.432-113.408c23.253 15.829 51.328 25.173 81.579 25.173 2.688 0 5.333-0.171 8.021-0.256l122.069 176.725v2.517c0 106.453 86.528 193.024 193.024 193.024 106.411 0 193.024-86.656 193.024-193.152s-86.613-193.067-193.024-193.067h-4.48l-173.909-124.203c0-2.219 0.171-4.48 0.171-6.784 0-80-64.64-144.896-144.64-144.896-69.76 0-128.683 50.048-142.123 116.352l-196.48 81.365c60.843-214.912 258.133-372.48 492.501-372.48 282.752 0 511.957 229.248 511.957 512s-229.248 512-511.957 512zM321.707 161.707l-62.848 26.027c11.179-23.168 30.464-42.624 56.064-53.333 55.339-22.997 119.168 3.243 142.165 58.667 11.221 26.88 11.264 56.277 0.213 83.157s-32 47.829-58.752 59.008c-26.624 11.093-55.040 10.624-80.128 1.28l64.981-26.88c40.789-17.067 60.117-64 43.051-104.747-16.939-40.832-63.872-60.16-104.704-43.179zM808.747 558.635c0 70.912-57.728 128.64-128.64 128.64-71.040 0-128.64-57.728-128.64-128.64 0-71.040 57.6-128.64 128.64-128.64 70.955 0 128.64 57.6 128.64 128.64zM583.765 558.848c0 53.419 43.221 96.683 96.64 96.683 53.291 0 96.683-43.264 96.683-96.683 0-53.376-43.392-96.64-96.683-96.64-53.461 0-96.64 43.264-96.64 96.64z" />
<glyph unicode="&#xe917;" glyph-name="telegram" d="M1020.16 776.96l-154.027-727.467c-10.667-51.627-41.813-64-85.333-40.107l-234.667 173.653-113.493-109.653c-12.8-12.8-23.467-23.893-46.933-23.893-30.72 0-25.6 11.52-35.84 40.533l-81.067 264.107-232.533 72.533c-50.347 14.933-50.773 49.493 11.093 74.667l907.093 349.867c41.387 18.347 81.067-10.24 65.707-74.24z" />
<glyph unicode="&#xe918;" glyph-name="tiktok" d="M534.613 937.814c55.893 0.853 111.36 0.427 166.827 0.853 3.413-65.28 26.88-131.84 74.667-177.92 47.787-47.36 115.2-69.12 180.907-76.373v-171.947c-61.44 2.133-123.307 14.933-179.2 41.387-24.32 11.093-46.933 25.173-69.12 39.68-0.427-124.587 0.427-249.173-0.853-373.333-3.413-59.733-23.040-119.040-57.6-168.107-55.893-81.92-152.747-135.253-252.16-136.96-61.013-3.413-122.027 13.227-174.080 43.947-86.187 50.773-146.773 143.787-155.733 243.627-0.853 21.333-1.28 42.667-0.427 63.573 7.68 81.067 47.787 158.72 110.080 211.627 70.827 61.44 169.813 90.88 262.4 73.387 0.853-63.147-1.707-126.293-1.707-189.44-42.24 13.653-91.733 9.813-128.853-15.787-26.88-17.493-47.36-44.373-58.027-74.667-8.96-21.76-6.4-45.653-5.973-68.693 10.24-69.973 77.653-128.853 149.333-122.453 47.787 0.427 93.44 28.16 118.187 68.693 8.107 14.080 17.067 28.587 17.493 45.227 4.267 76.373 2.56 152.32 2.987 228.693 0.427 171.947-0.427 343.467 0.853 514.987z" />
<glyph unicode="&#xe919;" glyph-name="twitch" d="M89.131 938.667l-66.731-178.133v-712.277h244.736v-133.589h133.632l133.419 133.632h200.32l267.093 267.008v623.36zM178.133 849.707h734.507v-489.771l-155.819-155.819h-244.821l-133.419-133.419v133.419h-200.448zM423.040 404.395h88.96v267.093h-88.96zM667.733 404.395h89.003v267.093h-89.003z" />
<glyph unicode="&#xe91a;" glyph-name="twitter" d="M1022.037 743.723c-37.76-16.597-78.080-27.904-120.533-33.067 43.264 26.069 76.544 67.157 92.288 116.181-40.576-23.68-85.547-40.917-133.419-50.517-38.229 40.917-92.715 66.517-153.216 66.517-115.925 0-209.92-93.995-209.92-209.792 0-16.64 1.92-32.64 5.419-47.957-174.507 8.235-329.173 92.032-432.683 218.709-18.219-30.805-28.416-66.603-28.416-105.6 0-72.96 37.12-137.088 93.355-174.763-34.432 1.109-66.816 10.581-95.061 26.283v-2.603c0-101.76 72.235-186.624 168.363-205.952-17.621-4.736-36.224-7.296-55.296-7.296-13.397 0-26.24 1.28-39.083 3.669 26.923-83.328 104.32-144.085 196.437-145.792-71.68-56.277-162.517-89.813-260.352-89.813-16.64 0-33.237 0.981-49.92 2.859 93.397-59.477 203.435-94.251 322.432-94.251 386.304 0 597.291 319.829 597.291 596.736 0 8.917 0 17.92-0.64 26.88 41.003 29.397 76.8 66.56 104.96 108.715z" />
<glyph unicode="&#xe91b;" glyph-name="wechat" d="M1004.416 394.752c-25.984 58.88-75.008 105.643-131.925 134.443-100.437 50.859-225.323 50.56-325.504-1.28-69.589-35.712-127.701-99.712-144.171-177.579-13.568-57.344-1.408-119.083 29.013-169.003 45.269-75.179 127.104-123.179 212.096-138.581 61.568-12.501 125.269-5.077 185.088 12.16 35.925-13.909 67.925-36.437 102.741-53.163-9.003 30.165-18.603 59.989-28.843 89.685 39.083 27.733 74.496 62.336 95.744 105.771 31.744 60.373 33.664 135.296 5.76 197.547zM580.992 798.635c-106.453 59.904-239.019 68.907-353.536 27.52-75.264-27.093-143.36-77.44-185.429-145.92-38.187-61.867-52.48-139.008-34.091-209.792 18.475-78.507 73.003-144.341 139.179-188.288-12.8-36.267-24.96-72.491-36.48-109.013 41.6 21.76 83.2 44.501 124.843 66.603 49.92-16 103.040-23.851 156.16-22.101-14.080 40.235-17.28 83.84-10.88 125.909 9.6 58.496 41.6 112 85.077 151.637 73.643 68.907 177.963 97.963 277.163 90.923-18.603 91.093-82.603 168.064-163.157 212.48zM654.933 372.438c-8.917-27.819-49.323-36.181-68.907-15.019-21.589 19.584-13.184 60.501 15.147 69.248 31.317 13.227 67.499-22.912 53.76-54.229zM859.52 368.512c-10.923-25.003-48.683-30.848-67.243-11.52-8.917 8.149-11.52 20.437-14.677 31.147 4.437 19.541 17.92 39.808 39.68 40.747 30.080 4.181 57.003-32.981 41.6-60.416zM554.24 643.883c0.341-41.003-54.4-66.603-85.12-38.784-31.872 22.827-22.827 78.379 14.592 89.856 33.493 13.44 73.088-14.677 70.443-50.56zM295.723 633.472c-7.339-35.627-55.083-52.821-83.029-28.928-32.384 22.827-23.296 79.403 14.72 90.923 37.248 14.336 79.573-23.467 68.309-61.995z" />
<glyph unicode="&#xe91c;" glyph-name="whatsapp" d="M746.581 325.035c-12.843 6.4-75.392 36.992-87.040 41.216-11.648 4.309-20.181 6.4-28.715-6.4-8.405-12.587-32.896-41.131-40.277-49.579-7.467-8.32-14.891-8.96-27.563-3.2-12.8 6.4-53.888 19.84-102.528 63.36-37.888 33.92-63.317 75.52-70.827 88.32-7.424 12.8-0.811 19.84 5.547 26.24 5.803 5.76 12.843 14.72 19.243 22.315 6.229 7.723 8.277 12.843 12.672 21.163 4.267 8.96 2.091 16-1.067 22.357-3.2 6.4-28.672 69.12-39.339 94.123-10.24 24.917-20.779 21.76-28.672 21.76-7.339 0.64-15.829 0.64-24.363 0.64s-22.315-3.157-34.005-15.317c-11.648-12.8-44.587-43.52-44.587-105.6s45.653-122.24 52.011-131.2c6.357-8.32 89.813-136.32 217.6-191.36 30.464-12.8 54.187-20.48 72.704-26.837 30.464-9.685 58.24-8.32 80.213-5.163 24.491 3.883 75.392 30.763 86.016 60.843 10.88 30.080 10.88 55.040 7.68 60.8-3.157 5.76-11.52 8.96-24.32 14.72zM514.603 10.667h-0.683c-75.52 0-150.357 20.48-215.68 58.88l-15.36 9.131-160-41.6 42.88 155.52-10.197 16c-42.24 67.243-64.683 144.683-64.683 224.427 0 232.32 190.080 421.76 424.192 421.76 113.237 0 219.52-44.16 299.563-124.16 80-79.317 124.117-185.6 124.117-298.24-0.171-232.277-190.293-421.76-423.893-421.76zM875.52 791.51c-97.28 94.037-225.28 147.157-361.6 147.157-280.832 0-509.483-227.584-509.611-507.435 0-89.429 23.424-176.64 68.053-253.653l-72.363-262.912 270.293 70.485c74.496-40.235 158.293-61.611 243.627-61.739h0.256c280.96 0 509.696 227.669 509.824 507.563 0 135.509-52.907 263.040-149.12 358.869z" />
<glyph unicode="&#xe91d;" glyph-name="youtube" d="M1002.453 673.92c-12.365 43.307-45.781 76.722-88.183 88.866l-0.905 0.222c-79.787 21.376-400.896 21.376-400.896 21.376s-320.299 0.427-400.896-21.376c-43.307-12.365-76.722-45.781-88.866-88.183l-0.222-0.905c-14.173-72.978-22.281-156.904-22.281-242.723 0-1.743 0.003-3.484 0.010-5.225l-0.001 0.268c-0.004-1.198-0.006-2.617-0.006-4.035 0-85.813 8.107-169.732 23.598-251.033l-1.32 8.327c12.365-43.307 45.781-76.722 88.183-88.866l0.905-0.222c79.701-21.419 400.896-21.419 400.896-21.419s320.256 0 400.896 21.419c43.307 12.365 76.722 45.781 88.866 88.183l0.222 0.905c13.59 71.472 21.364 153.686 21.364 237.715 0 3.173-0.011 6.344-0.033 9.513l0.003-0.486c0.024 2.951 0.037 6.439 0.037 9.929 0 84.041-7.776 166.267-22.648 245.996l1.278-8.245zM409.984 273.024v306.901l267.264-153.685z" />
<glyph unicode="&#xe91e;" glyph-name="edit" d="M469.333 810.667h-298.667c-35.328 0-67.413-14.379-90.496-37.504s-37.504-55.168-37.504-90.496v-597.333c0-35.328 14.379-67.413 37.504-90.496s55.168-37.504 90.496-37.504h597.333c35.328 0 67.413 14.379 90.496 37.504s37.504 55.168 37.504 90.496v298.667c0 23.552-19.115 42.667-42.667 42.667s-42.667-19.115-42.667-42.667v-298.667c0-11.776-4.736-22.4-12.501-30.165s-18.389-12.501-30.165-12.501h-597.333c-11.776 0-22.4 4.736-30.165 12.501s-12.501 18.389-12.501 30.165v597.333c0 11.776 4.736 22.4 12.501 30.165s18.389 12.501 30.165 12.501h298.667c23.552 0 42.667 19.115 42.667 42.667s-19.115 42.667-42.667 42.667zM759.168 862.166l-405.333-405.333c-5.205-5.163-9.259-11.947-11.221-19.84l-42.667-170.667c-1.664-6.4-1.792-13.568 0-20.693 5.717-22.869 28.885-36.779 51.755-31.061l170.667 42.667c7.125 1.749 14.080 5.504 19.84 11.221l405.333 405.333c25.984 25.984 38.997 60.16 38.997 94.165s-13.013 68.181-38.997 94.165-60.203 39.040-94.208 39.040-68.181-13.013-94.165-38.997zM819.499 801.835c9.344 9.344 21.504 13.995 33.835 13.995s24.491-4.651 33.835-13.995 13.995-21.504 13.995-33.835-4.651-24.491-13.995-33.835l-396.971-396.971-90.197-22.571 22.571 90.197z" />
<glyph unicode="&#xe91f;" glyph-name="mail" d="M128 600.704l359.552-251.691c14.507-10.027 33.92-10.496 48.939 0l359.509 251.691v-430.037c0-11.605-4.693-22.229-12.587-30.080s-18.475-12.587-30.080-12.587h-682.667c-11.605 0-22.229 4.693-30.080 12.587s-12.587 18.475-12.587 30.080zM42.667 683.392c0-0.427 0-0.853 0-1.28v-511.445c0-35.328 14.507-67.371 37.547-90.453s55.125-37.547 90.453-37.547h682.667c35.328 0 67.371 14.507 90.453 37.547s37.547 55.125 37.547 90.453v511.488c0 0.427 0 0.853 0 1.28-0.213 35.029-14.635 66.773-37.547 89.685-23.083 23.040-55.125 37.547-90.453 37.547h-682.667c-35.328 0-67.371-14.507-90.453-37.547-22.912-22.912-37.333-54.656-37.547-89.728zM891.477 701.696l-379.477-265.6-379.477 265.6c2.048 4.096 4.779 7.808 8.021 11.051 7.893 7.893 18.517 12.587 30.123 12.587h682.667c11.605 0 22.229-4.693 30.080-12.587 3.243-3.243 5.973-6.997 8.021-11.051z" />
<glyph unicode="&#xe920;" glyph-name="map-pin" d="M938.667 512c0 117.803-47.787 224.555-124.971 301.696s-183.893 124.971-301.696 124.971-224.555-47.787-301.696-124.971-124.971-183.893-124.971-301.696c0-24.277 2.261-48.128 6.4-71.509 11.691-66.048 38.357-128.171 71.765-184.32 116.565-195.883 324.821-334.336 324.821-334.336 14.123-9.259 32.64-9.771 47.317 0 0 0 208.299 138.453 324.821 334.336 33.408 56.149 60.075 118.272 71.765 184.32 4.181 23.381 6.443 47.232 6.443 71.509zM853.333 512c0-18.944-1.749-37.845-5.077-56.661-9.429-53.333-31.445-105.728-61.099-155.563-81.579-137.131-214.869-245.205-271.744-287.573-59.648 39.083-195.755 148.352-278.613 287.573-29.653 49.835-51.669 102.229-61.099 155.563-3.285 18.816-5.035 37.717-5.035 56.661 0 94.251 38.144 179.541 99.968 241.365s147.115 99.968 241.365 99.968 179.541-38.144 241.365-99.968 99.968-147.115 99.968-241.365zM682.667 512c0 47.104-19.157 89.856-50.005 120.661s-73.557 50.005-120.661 50.005-89.856-19.157-120.661-50.005-50.005-73.557-50.005-120.661 19.157-89.856 50.005-120.661 73.557-50.005 120.661-50.005 89.856 19.157 120.661 50.005 50.005 73.557 50.005 120.661zM597.333 512c0-23.595-9.515-44.843-25.003-60.331s-36.736-25.003-60.331-25.003-44.843 9.515-60.331 25.003-25.003 36.736-25.003 60.331 9.515 44.843 25.003 60.331 36.736 25.003 60.331 25.003 44.843-9.515 60.331-25.003 25.003-36.736 25.003-60.331z" />
<glyph unicode="&#xe921;" glyph-name="message-square" d="M938.667 298.667v426.667c0 35.328-14.379 67.413-37.504 90.496s-55.168 37.504-90.496 37.504h-597.333c-35.328 0-67.413-14.379-90.496-37.504s-37.504-55.168-37.504-90.496v-682.667c0-10.923 4.181-21.845 12.501-30.165 16.683-16.683 43.691-16.683 60.331 0l158.165 158.165h494.336c35.328 0 67.413 14.379 90.496 37.504s37.504 55.168 37.504 90.496zM853.333 298.667c0-11.776-4.736-22.4-12.501-30.165s-18.389-12.501-30.165-12.501h-512c-11.776 0-22.443-4.779-30.165-12.501l-97.835-97.835v579.669c0 11.776 4.736 22.4 12.501 30.165s18.389 12.501 30.165 12.501h597.333c11.776 0 22.4-4.736 30.165-12.501s12.501-18.389 12.501-30.165z" />
<glyph unicode="&#xe922;" glyph-name="plus-circle" d="M981.333 426.667c0 129.579-52.565 246.997-137.472 331.861s-202.283 137.472-331.861 137.472-246.997-52.565-331.861-137.472-137.472-202.283-137.472-331.861 52.565-246.997 137.472-331.861 202.283-137.472 331.861-137.472 246.997 52.565 331.861 137.472 137.472 202.283 137.472 331.861zM896 426.667c0-106.069-42.923-201.984-112.469-271.531s-165.461-112.469-271.531-112.469-201.984 42.923-271.531 112.469-112.469 165.461-112.469 271.531 42.923 201.984 112.469 271.531 165.461 112.469 271.531 112.469 201.984-42.923 271.531-112.469 112.469-165.461 112.469-271.531zM341.333 384h128v-128c0-23.552 19.115-42.667 42.667-42.667s42.667 19.115 42.667 42.667v128h128c23.552 0 42.667 19.115 42.667 42.667s-19.115 42.667-42.667 42.667h-128v128c0 23.552-19.115 42.667-42.667 42.667s-42.667-19.115-42.667-42.667v-128h-128c-23.552 0-42.667-19.115-42.667-42.667s19.115-42.667 42.667-42.667z" />
<glyph unicode="&#xe923;" glyph-name="x-circle" d="M981.333 426.667c0 129.579-52.565 246.997-137.472 331.861s-202.283 137.472-331.861 137.472-246.997-52.565-331.861-137.472-137.472-202.283-137.472-331.861 52.565-246.997 137.472-331.861 202.283-137.472 331.861-137.472 246.997 52.565 331.861 137.472 137.472 202.283 137.472 331.861zM896 426.667c0-106.069-42.923-201.984-112.469-271.531s-165.461-112.469-271.531-112.469-201.984 42.923-271.531 112.469-112.469 165.461-112.469 271.531 42.923 201.984 112.469 271.531 165.461 112.469 271.531 112.469 201.984-42.923 271.531-112.469 112.469-165.461 112.469-271.531zM353.835 524.502l97.835-97.835-97.835-97.835c-16.683-16.683-16.683-43.691 0-60.331s43.691-16.683 60.331 0l97.835 97.835 97.835-97.835c16.683-16.683 43.691-16.683 60.331 0s16.683 43.691 0 60.331l-97.835 97.835 97.835 97.835c16.683 16.683 16.683 43.691 0 60.331s-43.691 16.683-60.331 0l-97.835-97.835-97.835 97.835c-16.683 16.683-43.691 16.683-60.331 0s-16.683-43.691 0-60.331z" />
</font>
</defs>
</svg>
